<svg width="250" height="285" viewBox="0 0 250 285" fill="none" xmlns="http://www.w3.org/2000/svg">
<path d="M213.098 145.33C262.074 177.087 262.336 228.569 213.667 260.32C164.998 292.071 85.8756 292.045 36.8997 260.32C-12.0763 228.595 -12.3322 177.087 36.331 145.336C84.9941 113.585 164.128 113.579 213.098 145.33Z" fill="black" fill-opacity="0.3"/>
<path d="M54.1937 230.222L105.53 264.355C106.246 264.831 107.059 265.082 107.887 265.082C108.715 265.082 109.528 264.831 110.244 264.355L203.482 202.779C203.66 202.661 203.808 202.491 203.911 202.287C204.013 202.082 204.068 201.85 204.068 201.615C204.068 201.379 204.013 201.147 203.911 200.942C203.808 200.738 203.66 200.568 203.482 200.45L152.868 166.792C152.155 166.323 151.347 166.076 150.525 166.076C149.703 166.076 148.895 166.323 148.182 166.792L54.205 227.899C54.0275 228.017 53.88 228.186 53.7771 228.389C53.6741 228.592 53.6194 228.822 53.6182 229.057C53.6171 229.292 53.6696 229.523 53.7705 229.727C53.8714 229.932 54.0173 230.102 54.1937 230.222Z" fill="#958080"/>
<path d="M121.76 16.4514C121.76 10.9654 120.054 7.1129 117.319 5.29725L111.182 1.15186L111.097 1.0998C110.852 0.937211 110.597 0.793717 110.335 0.67029C110.287 0.647873 110.237 0.628323 110.187 0.611721L109.926 0.507598C109.795 0.455537 109.67 0.39046 109.533 0.344906C109.397 0.299353 109.237 0.266816 109.095 0.22777L108.822 0.162692C108.776 0.145879 108.728 0.13283 108.68 0.123645C108.375 0.0624472 108.068 0.0211659 107.759 0H107.48C107.241 0 107.002 0 106.752 0L106.502 0.0325379L106.047 0.0846006C105.905 0.0846006 105.763 0.0846004 105.621 0.130154L105.24 0.22777C105.035 0.266816 104.83 0.318878 104.62 0.377447C104.506 0.377447 104.398 0.422999 104.284 0.462045C104.028 0.540137 103.772 0.631244 103.511 0.72886H103.431C103.118 0.845998 102.811 0.982661 102.493 1.13234L102.117 1.32757L101.759 1.51629C101.298 1.76358 100.838 2.0304 100.366 2.34277L55.5072 31.9853C55.0181 32.3106 54.5347 32.6621 54.057 33.0395L53.6021 33.417C53.2779 33.6838 52.9595 33.9571 52.641 34.2434L52.1235 34.738C51.8334 35.0178 51.5548 35.3042 51.2647 35.597L50.7529 36.1437L50.4288 36.4886C50.3207 36.6122 50.2127 36.7554 50.1046 36.8855C49.7634 37.2825 49.4222 37.6925 49.0923 38.1155C48.99 38.2522 48.8762 38.3758 48.7682 38.5125L48.5123 38.8704C48.3132 39.1372 48.1199 39.417 47.9436 39.6904C47.7673 39.9637 47.682 40.0483 47.5569 40.2305C47.4317 40.4127 47.3578 40.5429 47.2611 40.699C47.1645 40.8552 46.9768 41.1286 46.8403 41.3498L46.5446 41.7988C46.3853 42.0591 46.2375 42.326 46.0839 42.5928L45.7882 43.0939L45.6688 43.3021C45.3958 43.7902 45.1342 44.2783 44.8783 44.7794L44.8328 44.877L44.685 45.1763C44.5087 45.5277 44.3324 45.8857 44.1674 46.2436C44.0878 46.4063 44.0196 46.5755 43.9457 46.7447L43.7125 47.2653C43.6499 47.4215 43.576 47.5712 43.5134 47.7208C43.3371 48.1308 43.1779 48.5408 43.0187 48.9573L42.9334 49.172L42.9049 49.2306C42.7116 49.7512 42.5239 50.2718 42.3362 50.7925C42.3078 50.8901 42.2794 50.9877 42.2453 51.0853C42.2111 51.1829 42.1315 51.4627 42.069 51.6515C42.0064 51.8402 41.8984 52.1721 41.8244 52.4389C41.7505 52.7057 41.7164 52.8424 41.6595 53.0506C41.6026 53.2589 41.5287 53.5257 41.4718 53.76C41.415 53.9942 41.3865 54.0593 41.3524 54.209C41.2842 54.4758 41.2387 54.7426 41.1818 55.0094C41.1249 55.2763 41.0453 55.6016 40.9884 55.8945C40.9884 55.9986 40.9429 56.1027 40.9202 56.2069C40.8804 56.4216 40.8633 56.6299 40.8292 56.8576C40.7496 57.3197 40.6757 57.7817 40.6188 58.2438C40.6188 58.3739 40.5733 58.5041 40.5619 58.6277C40.5278 58.9206 40.5107 59.2069 40.488 59.4997C40.4652 59.7926 40.4482 59.9097 40.4368 60.1115C40.3913 60.7622 40.3629 61.413 40.3686 62.0312L40.5619 161.085C40.5619 166.571 42.268 170.43 45.0034 172.245L51.1453 176.404C50.9728 176.281 50.8057 176.149 50.6449 176.007C53.4428 178.239 57.4692 178.161 61.9562 175.193L106.803 145.544C115.197 140 121.988 126.548 121.959 115.498L121.76 16.4514Z" fill="#EA454C"/>
<path opacity="0.6" d="M121.76 16.4514C121.76 10.9654 120.054 7.1129 117.319 5.29725L111.182 1.15186L111.097 1.0998C110.852 0.937211 110.597 0.793717 110.335 0.67029C110.287 0.647873 110.237 0.628323 110.187 0.611721L109.926 0.507598C109.795 0.455537 109.67 0.39046 109.533 0.344906C109.397 0.299353 109.237 0.266816 109.095 0.22777L108.822 0.162692C108.776 0.145879 108.728 0.13283 108.68 0.123645C108.375 0.0624472 108.068 0.0211659 107.759 0H107.48C107.241 0 107.002 0 106.752 0L106.502 0.0325379L106.047 0.0846006C105.905 0.0846006 105.763 0.0846004 105.621 0.130154L105.24 0.22777C105.035 0.266816 104.83 0.318878 104.62 0.377447C104.506 0.377447 104.398 0.422999 104.284 0.462045C104.028 0.540137 103.772 0.631244 103.511 0.72886H103.431C103.118 0.845998 102.811 0.982661 102.493 1.13234L102.117 1.32757L101.759 1.51629C101.298 1.76358 100.838 2.0304 100.366 2.34277L55.5072 31.9853C55.0181 32.3106 54.5347 32.6621 54.057 33.0395L53.6021 33.417C53.2779 33.6838 52.9595 33.9571 52.641 34.2434L52.1235 34.738C51.8334 35.0178 51.5548 35.3042 51.2647 35.597L50.7529 36.1437L50.4288 36.4886C50.3207 36.6122 50.2127 36.7554 50.1046 36.8855C49.7634 37.2825 49.4222 37.6925 49.0923 38.1155C48.99 38.2522 48.8762 38.3758 48.7682 38.5125L48.5123 38.8704C48.3132 39.1372 48.1199 39.417 47.9436 39.6904C47.7673 39.9637 47.682 40.0483 47.5569 40.2305C47.4317 40.4127 47.3578 40.5429 47.2611 40.699C47.1645 40.8552 46.9768 41.1286 46.8403 41.3498L46.5446 41.7988C46.3853 42.0591 46.2375 42.326 46.0839 42.5928L45.7882 43.0939L45.6688 43.3021C45.3958 43.7902 45.1342 44.2783 44.8783 44.7794L44.8328 44.877L44.685 45.1763C44.5087 45.5277 44.3324 45.8857 44.1674 46.2436C44.0878 46.4063 44.0196 46.5755 43.9457 46.7447L43.7125 47.2653C43.6499 47.4215 43.576 47.5712 43.5134 47.7208C43.3371 48.1308 43.1779 48.5408 43.0187 48.9573L42.9334 49.172L42.9049 49.2306C42.7116 49.7512 42.5239 50.2718 42.3362 50.7925C42.3078 50.8901 42.2794 50.9877 42.2453 51.0853C42.2111 51.1829 42.1315 51.4627 42.069 51.6515C42.0064 51.8402 41.8984 52.1721 41.8244 52.4389C41.7505 52.7057 41.7164 52.8424 41.6595 53.0506C41.6026 53.2589 41.5287 53.5257 41.4718 53.76C41.415 53.9942 41.3865 54.0593 41.3524 54.209C41.2842 54.4758 41.2387 54.7426 41.1818 55.0094C41.1249 55.2763 41.0453 55.6016 40.9884 55.8945C40.9884 55.9986 40.9429 56.1027 40.9202 56.2069C40.8804 56.4216 40.8633 56.6299 40.8292 56.8576C40.7496 57.3197 40.6757 57.7817 40.6188 58.2438C40.6188 58.3739 40.5733 58.5041 40.5619 58.6277C40.5278 58.9206 40.5107 59.2069 40.488 59.4997C40.4652 59.7926 40.4482 59.9097 40.4368 60.1115C40.3913 60.7622 40.3629 61.413 40.3686 62.0312L40.5619 161.085C40.5619 166.571 42.268 170.43 45.0034 172.245L51.1453 176.404C50.9728 176.281 50.8057 176.149 50.6449 176.007C53.4428 178.239 57.4692 178.161 61.9562 175.193L106.803 145.544C115.197 140 121.988 126.548 121.959 115.498L121.76 16.4514Z" fill="black"/>
<path opacity="0.1" d="M46.6924 165.224L46.5218 66.1766L40.3799 62.0182L40.5733 161.072C40.5733 166.558 42.2794 170.417 45.0148 172.232L51.1567 176.391C48.4042 174.575 46.7095 170.716 46.6924 165.224Z" fill="black"/>
<path opacity="0.3" d="M108.259 5.49248C108.688 5.26719 109.126 5.06736 109.573 4.89378H109.653C110.028 4.75061 110.398 4.63998 110.79 4.54236L111.41 4.38618C111.683 4.32761 111.95 4.28205 112.217 4.24952L112.672 4.19095C112.998 4.1716 113.325 4.1716 113.651 4.19095H113.872C114.254 4.21705 114.634 4.27139 115.01 4.35364L115.283 4.42522C115.564 4.50081 115.841 4.59423 116.113 4.70505L116.375 4.80267C116.718 4.95575 117.051 5.13849 117.37 5.34932L111.182 1.15186L111.097 1.0998C110.852 0.93721 110.597 0.793717 110.335 0.67029C110.287 0.647873 110.237 0.628323 110.187 0.611721L109.926 0.507598C109.795 0.455537 109.67 0.39046 109.533 0.344906C109.397 0.299353 109.237 0.266816 109.095 0.22777L108.822 0.162692C108.776 0.145879 108.728 0.13283 108.68 0.123645C108.375 0.0624472 108.068 0.0211659 107.759 0H107.48C107.241 0 107.002 0 106.752 0L106.502 0.0325379L106.047 0.0846006C105.905 0.0846006 105.763 0.0846004 105.621 0.130154L105.24 0.22777C105.035 0.266816 104.83 0.318878 104.62 0.377447C104.506 0.377447 104.398 0.422999 104.284 0.462045C104.028 0.540137 103.772 0.631244 103.511 0.72886H103.431C103.118 0.845998 102.811 0.982661 102.493 1.13234L102.117 1.32757L101.759 1.51629C101.298 1.76358 100.838 2.0304 100.366 2.34277L55.5072 31.9853C55.0181 32.3106 54.5347 32.6621 54.057 33.0395L53.6021 33.4235C53.2779 33.6838 52.9595 33.9571 52.641 34.2434L52.1235 34.738C51.8334 35.0178 51.5548 35.3042 51.2647 35.597L50.7529 36.1437L50.4288 36.4886C50.3207 36.6122 50.2127 36.7554 50.1046 36.8855C49.7634 37.2825 49.4222 37.6925 49.0923 38.1155C48.99 38.2522 48.8762 38.3758 48.7682 38.5125L48.5123 38.8704C48.3132 39.1372 48.1199 39.417 47.9436 39.6903C47.7673 39.9637 47.682 40.0483 47.5569 40.2305C47.4317 40.4127 47.3578 40.5429 47.2611 40.699C47.1645 40.8552 46.9768 41.1285 46.8403 41.3498L46.5446 41.7988C46.3853 42.0591 46.2375 42.326 46.0839 42.5928L45.7882 43.0939L45.6688 43.3021C45.3958 43.7902 45.1342 44.2783 44.8783 44.7794L44.8328 44.877L44.685 45.1763C44.5087 45.5342 44.3324 45.8857 44.1674 46.2436C44.0878 46.4063 44.0196 46.5755 43.9457 46.7447L43.7125 47.2653C43.6499 47.4215 43.576 47.5712 43.5134 47.7208C43.3371 48.1308 43.1779 48.5408 43.0187 48.9573L42.9334 49.172L42.9049 49.2306C42.7116 49.7512 42.5239 50.2718 42.3362 50.7925C42.3078 50.8901 42.2794 50.9877 42.2453 51.0853C42.2111 51.1829 42.1315 51.4627 42.069 51.6515C42.0064 51.8402 41.8984 52.1721 41.8244 52.4389C41.7505 52.7057 41.7164 52.8424 41.6595 53.0506C41.6026 53.2589 41.5287 53.5257 41.4718 53.76C41.415 53.9942 41.3865 54.0593 41.3524 54.209C41.2842 54.4758 41.2387 54.7426 41.1818 55.0094C41.1249 55.2762 41.0453 55.6016 40.9884 55.8945C40.9884 55.9986 40.9429 56.1027 40.9202 56.2069C40.8804 56.4216 40.8633 56.6299 40.8292 56.8576C40.7496 57.3197 40.6757 57.7817 40.6188 58.2438C40.6188 58.3739 40.5733 58.5041 40.5619 58.6277C40.5278 58.9206 40.5107 59.2069 40.488 59.4997C40.4652 59.7926 40.4482 59.9097 40.4368 60.1115C40.3913 60.7622 40.3629 61.413 40.3686 62.0312L46.5105 66.1896C46.5105 65.5389 46.5105 64.8881 46.573 64.2699C46.573 64.0616 46.6128 63.8599 46.6299 63.6516C46.664 63.2351 46.7095 62.8186 46.7607 62.4022C46.8119 61.9857 46.8915 61.4781 46.9711 61.016C47.0223 60.6972 47.0678 60.3653 47.1303 60.0659C47.1929 59.7665 47.2555 59.4737 47.3237 59.1744C47.4147 58.7644 47.5057 58.3479 47.608 57.9314C47.6706 57.6971 47.7388 57.4563 47.8014 57.2155C47.9322 56.7535 48.0687 56.2849 48.2109 55.8229C48.2677 55.6342 48.3246 55.4389 48.3872 55.2502C48.5976 54.5995 48.8194 53.9487 49.0639 53.3435L49.1492 53.1222C49.371 52.556 49.5985 51.9964 49.843 51.4367C49.9169 51.261 49.9966 51.0853 50.0762 50.9161C50.3093 50.389 50.5596 49.8684 50.8155 49.3478L50.9633 49.0484C51.2704 48.4432 51.5889 47.851 51.9187 47.2653L52.2145 46.7577C52.459 46.3412 52.7092 45.9312 52.9651 45.5212L53.3917 44.8705C53.6135 44.5321 53.8466 44.2197 54.0741 43.8683L54.6428 43.0418L55.2115 42.2934C55.5413 41.8704 55.8825 41.4604 56.2238 41.0635C56.4399 40.8097 56.6503 40.5624 56.8721 40.3216C57.0939 40.0808 57.2133 39.9507 57.3839 39.7749C57.6682 39.4756 57.9526 39.1893 58.2426 38.9159L58.7601 38.4213C59.0786 38.135 59.3971 37.8617 59.7212 37.5949C59.8748 37.4712 60.0226 37.3346 60.1762 37.2174C60.6539 36.84 61.1373 36.4886 61.6264 36.1632L106.485 6.5272C106.957 6.21484 107.418 5.94802 107.878 5.70073L108.259 5.49248Z" fill="black"/>
<path d="M54.3414 165.198C54.3414 167.352 54.7565 168.451 54.9669 168.79C55.0313 168.796 55.096 168.796 55.1603 168.79C55.5072 168.79 56.4854 168.673 58.1232 167.592L102.982 137.956C109.038 133.954 114.356 123.47 114.31 115.511L114.265 90.0663L54.2674 130.134L54.3414 165.198Z" fill="#EA454C"/>
<path d="M114.117 16.4775C114.117 14.2974 113.685 13.2236 113.48 12.8852H113.224H113.048L112.797 12.9308L112.559 12.9893C112.411 13.0284 112.2 13.0935 112.047 13.152H111.973C111.819 13.2171 111.615 13.3082 111.404 13.4319L111.194 13.5425C110.853 13.7247 110.585 13.8809 110.352 14.0371L65.4935 43.6731C65.2148 43.8618 64.9248 44.083 64.5779 44.3238L64.2367 44.6036C64.0149 44.7924 63.7931 44.9811 63.577 45.1763L63.2699 45.4627L63.2073 45.5277C62.9912 45.7295 62.7865 45.9377 62.5818 46.146L62.2007 46.556L61.7913 47.031L61.7173 47.1156C61.4557 47.415 61.1998 47.7273 60.9553 48.0462L60.87 48.1503L60.506 48.6189L60.0454 49.2697C59.8634 49.53 59.6814 49.7903 59.5108 50.0571L59.1753 50.5647C58.9762 50.8901 58.7772 51.2155 58.6066 51.5474L58.3677 51.9508C58.0948 52.4389 57.8388 52.914 57.6171 53.35L57.4919 53.6038C57.2872 54.0138 57.0939 54.4302 56.9232 54.8467L56.7413 55.2567C56.5479 55.6992 56.3659 56.1418 56.1726 56.5583C56.1385 56.6429 56.11 56.7275 56.0702 56.8186C55.911 57.2481 55.7461 57.7166 55.5698 58.2438L55.4333 58.6863C55.3195 59.0442 55.2172 59.4021 55.1205 59.76C55.0693 59.9423 55.0181 60.1245 54.9726 60.3002C54.893 60.6125 54.8248 60.9184 54.7565 61.2438L54.7167 61.4195L54.6144 61.8881L54.5461 62.2915L54.5006 62.5779C54.4437 62.9098 54.3926 63.2286 54.3528 63.567C54.3129 63.9054 54.2845 64.1397 54.2618 64.426L54.222 64.8425C54.1878 65.3306 54.1765 65.7341 54.1765 66.092L54.2959 127.167L114.293 87.0988L114.117 16.4775Z" fill="white"/>
<path d="M54.2618 127.232L54.2675 130.147L114.265 90.0793L114.253 87.1639L54.2618 127.232Z" fill="black"/>
<path d="M104.557 50.9096L98.8417 54.6906C100.9 49.4844 100.616 44.2783 97.9887 42.5863C96.5214 41.6297 94.5765 41.9355 92.6884 43.2371C90.4775 44.8098 88.6564 47.0057 87.3996 49.6146L85.8357 52.7122L85.5684 48.7556C85.5684 48.4237 85.3295 48.2935 85.0395 48.4627C84.9023 48.5654 84.7851 48.6992 84.6951 48.856C84.6051 49.0127 84.5442 49.189 84.5163 49.3738L84.0272 53.0246L83.1287 52.4389C81.6614 51.4823 79.7165 51.7882 77.8228 53.0571C75.6125 54.6287 73.793 56.8251 72.5396 59.4347C69.9236 64.6408 69.6677 70.1463 71.7491 72.6257L66.0224 76.4067C65.8667 76.5193 65.7372 76.6735 65.6451 76.856C65.5529 77.0385 65.5009 77.2439 65.4935 77.4544C65.4935 77.8384 65.7323 77.9946 66.0224 77.8059L72.6818 73.3871L74.7348 74.7277L85.3637 81.6519L86.575 79.2506L86.6262 79.999C86.6262 80.3374 86.8764 80.4675 87.155 80.2918C87.2989 80.1831 87.4206 80.0403 87.5118 79.8729C87.6031 79.7056 87.6618 79.5178 87.6839 79.3222L87.8943 76.6345L95.9186 60.7297L97.9602 56.6884L104.591 52.3088C104.74 52.1906 104.864 52.0345 104.952 51.8528C105.039 51.671 105.089 51.4685 105.097 51.261C105.097 50.8706 104.853 50.7144 104.557 50.9096Z" fill="#EA454C"/>
<path d="M85.0338 48.4302C85.3238 48.261 85.5399 48.3911 85.5627 48.723L85.83 52.6797L87.1892 72.437L88.8327 51.8532C88.8498 51.6625 88.9035 51.4784 88.99 51.3141C89.0765 51.1499 89.1937 51.0095 89.3331 50.9031C89.6061 50.7209 89.8279 50.8055 89.8734 51.1114L91.8183 63.1376L92.1823 59.682C92.2058 59.492 92.2647 59.3101 92.355 59.1484C92.4452 58.9867 92.5648 58.8491 92.7055 58.7449L98.8417 54.6906L104.563 50.9096C104.858 50.7144 105.097 50.8706 105.097 51.261C105.087 51.4708 105.033 51.6748 104.941 51.8567C104.85 52.0386 104.722 52.1934 104.568 52.3088L97.9375 56.6884L93.1548 59.8382L92.3984 66.9966C92.3758 67.1844 92.3184 67.3646 92.2302 67.5251C92.1419 67.6855 92.0248 67.8226 91.8866 67.9272C91.6193 68.1029 91.4032 68.0118 91.352 67.7125L89.4924 56.1613L87.8659 76.641L87.6555 79.3287C87.6334 79.5243 87.5747 79.7121 87.4834 79.8795C87.3921 80.0468 87.2704 80.1896 87.1266 80.2983C86.8479 80.474 86.6205 80.3439 86.5977 80.0055L86.5465 79.2571L84.8405 54.3196L81.997 75.4631C81.9684 75.646 81.9078 75.8204 81.8189 75.9758C81.73 76.1313 81.6145 76.2645 81.4795 76.3677C81.1837 76.5434 80.9733 76.4132 80.9506 76.0813L79.8132 61.1137L78.5223 69.0075C78.4904 69.1847 78.4283 69.3529 78.3395 69.5026C78.2507 69.6522 78.137 69.7803 78.0047 69.8795L72.6818 73.3872L66.0451 77.7733C65.7551 77.9621 65.5162 77.7733 65.5162 77.4219C65.5237 77.2113 65.5757 77.0059 65.6678 76.8234C65.7599 76.6409 65.8894 76.4868 66.0451 76.3742L71.7719 72.5932L77.6067 68.7342L79.5402 56.9357C79.5704 56.757 79.6318 56.5871 79.7207 56.4361C79.8097 56.2852 79.9243 56.1563 80.0577 56.0572C80.3535 55.888 80.5582 56.0247 80.5866 56.3435L81.6899 70.6604L84.05 52.9791L84.539 49.3283C84.565 49.1484 84.6221 48.9762 84.7071 48.822C84.7921 48.6678 84.9032 48.5345 85.0338 48.4302Z" fill="black"/>
<path d="M77.891 94.3354L77.9081 102.828L75.73 104.266L75.7129 97.9341L74.604 98.663V96.5089L77.891 94.3354Z" fill="black"/>
<path d="M81.0928 92.0251C82.6225 91.0165 83.7031 91.3744 83.7088 92.9623C83.7088 93.7952 83.5495 94.6543 82.6055 96.3983L81.6899 98.1163L83.8623 96.6847V98.9038L78.6872 102.327V100.57L81.0188 96.1836C81.3098 95.7482 81.4855 95.2265 81.525 94.6803C81.525 94.2768 81.3089 94.1597 80.8937 94.433C80.4438 94.7637 80.1081 95.2628 79.944 95.8452H78.3005C78.8087 94.235 79.7976 92.8821 81.0928 92.0251Z" fill="black"/>
<path d="M87.2176 87.9774C88.9237 86.858 90.1464 87.6715 90.1521 90.4828C90.1888 91.7421 89.94 92.9908 89.4297 94.1073C88.9194 95.2238 88.1652 96.17 87.2403 96.8538C85.5343 97.9862 84.3059 97.1662 84.3002 94.3484C84.2651 93.0887 84.5153 91.8401 85.0265 90.7237C85.5377 89.6074 86.2925 88.6613 87.2176 87.9774ZM87.2176 94.5631C87.6384 94.2833 87.9512 93.5674 87.9455 91.9601C87.9398 90.3527 87.627 90.0078 87.2062 90.3071C86.7854 90.6065 86.4669 91.3028 86.4726 92.9102C86.4783 94.5176 86.7968 94.8625 87.2176 94.5696" fill="black"/>
<path d="M92.9671 90.1574C93.496 89.806 93.9509 90.0338 93.9509 90.8863C93.9467 91.2917 93.8553 91.6896 93.6847 92.0449C93.5141 92.4001 93.2695 92.7018 92.9728 92.9232C92.7225 93.0859 92.5406 93.1249 92.4041 93.0273V93.2421L91.6079 93.7692V90.1444L92.4439 89.5913V90.7301C92.568 90.4869 92.7493 90.2885 92.9671 90.1574ZM92.7681 92.2008C92.8747 92.1192 92.9611 92.0074 93.0189 91.8763C93.0767 91.7451 93.1039 91.5991 93.0979 91.4525C93.0979 91.1076 92.95 91.0295 92.7681 91.1531C92.6621 91.2321 92.5764 91.3417 92.5194 91.4708C92.4625 91.6 92.4364 91.7441 92.4439 91.8885C92.4439 92.2334 92.5861 92.318 92.7681 92.2008Z" fill="black"/>
<path d="M95.566 88.4329C96.0949 88.088 96.5442 88.3223 96.5442 89.1813C96.5423 89.5846 96.4523 89.981 96.2825 90.3345C96.1126 90.6879 95.8683 90.9872 95.5717 91.2052C95.3499 91.3483 95.1793 91.3939 95.0542 91.3158V92.4481L94.2182 93.0013V89.3895L95.0144 88.8624V89.0772C95.142 88.8076 95.3331 88.5844 95.566 88.4329ZM95.3727 90.4828C95.4793 90.4026 95.5658 90.2921 95.6236 90.162C95.6814 90.0319 95.7086 89.8867 95.7025 89.7409C95.7025 89.396 95.5546 89.3114 95.367 89.4351C95.2599 89.5163 95.1732 89.628 95.1154 89.7592C95.0575 89.8905 95.0306 90.0367 95.0371 90.1835C95.0371 90.5284 95.185 90.6065 95.3727 90.4828Z" fill="black"/>
<path d="M99.4957 85.8363C99.9563 85.537 100.303 85.6736 100.303 86.4871V88.0099L99.4673 88.5631V87.2615C99.4673 86.9231 99.3763 86.858 99.2455 86.9426C99.1549 87.0143 99.0828 87.1125 99.0368 87.227C98.9908 87.3415 98.9725 87.4681 98.9839 87.5934V88.8949L98.1479 89.4481V88.1466C98.1479 87.8082 98.0569 87.7431 97.9147 87.8342C97.8241 87.9059 97.7521 88.0041 97.706 88.1186C97.66 88.2331 97.6417 88.3596 97.6531 88.485V89.7865L96.8115 90.3397V87.6715L97.6076 87.1509V87.3917C97.7456 87.1228 97.9414 86.8988 98.1763 86.7409C98.4436 86.5652 98.6711 86.5457 98.8133 86.7409C98.96 86.3706 99.197 86.0565 99.4957 85.8363Z" fill="black"/>
<path d="M64.7712 130.655C66.7844 129.321 68.4222 130.394 68.4336 133.037C68.3682 134.482 68.0042 135.889 67.3715 137.143C66.7389 138.396 65.8555 139.46 64.794 140.247C62.7751 141.581 61.1373 140.514 61.1316 137.859C61.1984 136.414 61.5629 135.009 62.1955 133.757C62.8281 132.505 63.7108 131.442 64.7712 130.655Z" fill="black"/>
<path d="M108.703 105.503L108.709 107.305L72.3917 131.299L72.386 129.503L108.703 105.503Z" fill="black"/>
<path d="M108.743 119.501V121.303L72.4259 145.297L72.4202 143.494L108.743 119.501Z" fill="black"/>
<path d="M91.9036 134L91.9093 135.796L72.4315 148.662V146.865L91.9036 134Z" fill="black"/>
<path d="M86.7115 130.681V132.483L72.4145 141.933V140.13L86.7115 130.681Z" fill="black"/>
<path d="M104.75 111.49L104.756 113.286L72.3974 134.663V132.867L104.75 111.49Z" fill="black"/>
<path d="M94.6845 111.399L94.6902 113.195L72.3804 127.935V126.132L94.6845 111.399Z" fill="black"/>
<path d="M64.8054 144.627C66.8185 143.293 68.4621 144.36 68.4677 147.009C68.401 148.454 68.0364 149.86 67.4038 151.113C66.7713 152.367 65.8887 153.431 64.8281 154.219C62.8149 155.553 61.1714 154.479 61.1657 151.831C61.2325 150.386 61.5971 148.981 62.2297 147.729C62.8623 146.477 63.7449 145.414 64.8054 144.627Z" fill="black"/>
<path d="M155.677 163.59L149.461 159.458L66.6309 206.658L72.8638 210.777L155.677 163.59Z" fill="#455A64"/>
<path d="M195.855 190.311L113.184 237.413L119.872 241.832L202.515 194.736L195.855 190.311Z" fill="#455A64"/>
<path opacity="0.3" d="M155.677 163.59L149.461 159.458L66.6309 206.658L72.8638 210.777L155.677 163.59Z" fill="white"/>
<path d="M113.184 237.413L72.8638 210.777L66.6309 206.658L55.0409 204.914L108.1 240.199L119.872 241.832L113.184 237.413Z" fill="#455A64"/>
<path opacity="0.5" d="M113.184 237.413L72.8638 210.777L66.6309 206.658L55.0409 204.914L108.1 240.199L119.872 241.832L113.184 237.413Z" fill="white"/>
<path opacity="0.3" d="M195.855 190.311L113.184 237.413L119.872 241.832L202.515 194.736L195.855 190.311Z" fill="white"/>
<path d="M108.1 240.199L55.0409 204.914L55.0523 220.923L55.0636 227.977L108.117 263.262L108.1 240.199Z" fill="#455A64"/>
<path d="M60.1705 222.719V217.396C60.1697 217.167 60.2217 216.942 60.3212 216.743C60.4207 216.544 60.5642 216.379 60.7372 216.265C60.9103 216.15 61.1067 216.089 61.3068 216.089C61.5068 216.089 61.7033 216.149 61.8766 216.263L101.526 242.632C101.958 242.918 102.317 243.329 102.567 243.823C102.816 244.318 102.948 244.879 102.948 245.45V250.774C102.948 251.002 102.897 251.228 102.797 251.426C102.697 251.625 102.554 251.79 102.381 251.905C102.208 252.019 102.011 252.08 101.811 252.08C101.611 252.08 101.415 252.02 101.242 251.906L61.6093 225.537C61.1739 225.254 60.8115 224.844 60.5589 224.349C60.3062 223.854 60.1722 223.292 60.1705 222.719Z" fill="#37474F"/>
<path d="M108.1 240.199L108.117 263.262L202.537 200.879L202.515 194.736L119.872 241.832L108.1 240.199Z" fill="#455A64"/>
<path opacity="0.1" d="M108.1 240.199L108.117 263.262L202.537 200.879L202.515 194.736L119.872 241.832L108.1 240.199Z" fill="white"/>
<path d="M155.677 163.59L155.671 166.499H150.57L155.677 163.59Z" fill="#455A64"/>
<path d="M151.395 166.03L72.8638 210.777L113.184 237.413L193.495 191.651L155.177 166.167C154.606 165.787 153.961 165.576 153.301 165.552C152.641 165.528 151.986 165.692 151.395 166.03Z" fill="#37474F"/>
<path d="M109.141 169.824C108.688 169.824 108.254 170.03 107.934 170.396C107.614 170.762 107.435 171.259 107.435 171.777V236.652C108.466 237.388 109.636 237.834 110.847 237.953V171.783C110.848 171.526 110.804 171.272 110.719 171.034C110.633 170.797 110.508 170.581 110.349 170.399C110.191 170.217 110.002 170.072 109.795 169.974C109.588 169.875 109.365 169.824 109.141 169.824Z" fill="#BCBCBC"/>
<path opacity="0.2" d="M109.141 169.824C108.688 169.824 108.254 170.03 107.934 170.396C107.614 170.762 107.435 171.259 107.435 171.777V236.652C108.466 237.388 109.636 237.834 110.847 237.953V171.783C110.848 171.526 110.804 171.272 110.719 171.034C110.633 170.797 110.508 170.581 110.349 170.399C110.191 170.217 110.002 170.072 109.795 169.974C109.588 169.875 109.365 169.824 109.141 169.824Z" fill="black"/>
<path opacity="0.3" d="M109.141 169.824C108.688 169.824 108.254 170.03 107.934 170.396C107.614 170.762 107.435 171.259 107.435 171.777V177.393C108.443 177.598 109.465 177.703 110.489 177.705H110.853V171.783C110.853 171.526 110.81 171.271 110.724 171.033C110.638 170.795 110.512 170.578 110.353 170.396C110.194 170.214 110.005 170.07 109.797 169.972C109.589 169.874 109.366 169.824 109.141 169.824Z" fill="black"/>
<path d="M64.231 142.076C63.7785 142.076 63.3445 142.281 63.0246 142.648C62.7046 143.014 62.5249 143.51 62.5249 144.028V207.621C63.5698 208.299 64.7377 208.691 65.9371 208.766V144.035C65.9378 143.778 65.8942 143.523 65.8088 143.285C65.7234 143.048 65.5979 142.832 65.4394 142.65C65.2809 142.468 65.0925 142.323 64.8852 142.225C64.6778 142.126 64.4555 142.076 64.231 142.076Z" fill="#BCBCBC"/>
<path opacity="0.2" d="M64.231 142.076C63.7785 142.076 63.3445 142.281 63.0246 142.648C62.7046 143.014 62.5249 143.51 62.5249 144.028V207.621C63.5698 208.299 64.7377 208.691 65.9371 208.766V144.035C65.9378 143.778 65.8942 143.523 65.8088 143.285C65.7234 143.048 65.5979 142.832 65.4394 142.65C65.2809 142.468 65.0925 142.323 64.8852 142.225C64.6778 142.126 64.4555 142.076 64.231 142.076Z" fill="black"/>
<path opacity="0.3" d="M64.231 142.076C63.7785 142.076 63.3445 142.281 63.0246 142.648C62.7046 143.014 62.5249 143.51 62.5249 144.028V149.124L65.9371 151.388V144.035C65.9378 143.778 65.8942 143.523 65.8088 143.285C65.7234 143.048 65.5979 142.832 65.4394 142.65C65.2809 142.468 65.0925 142.323 64.8852 142.225C64.6778 142.126 64.4555 142.076 64.231 142.076Z" fill="black"/>
<path d="M77.1972 128.859C77.0827 128.676 76.93 128.529 76.7532 128.432C76.5764 128.334 76.3811 128.288 76.1849 128.299L65.1978 131.162C65.4009 131.139 65.6057 131.179 65.7909 131.277C65.976 131.376 66.1345 131.529 66.2498 131.722C66.5928 132.242 66.8232 132.847 66.922 133.489C67.0209 134.13 66.9854 134.789 66.8185 135.412C66.7734 135.639 66.6757 135.849 66.5357 136.018C66.3956 136.188 66.2183 136.311 66.0224 136.375L76.9584 133.512C77.1564 133.449 77.3361 133.327 77.4782 133.158C77.6204 132.988 77.7198 132.777 77.7659 132.548C77.9296 131.925 77.9634 131.267 77.8646 130.626C77.7659 129.985 77.5373 129.38 77.1972 128.859Z" fill="#455A64"/>
<path d="M66.8413 135.412C67.0082 134.789 67.0436 134.13 66.9448 133.489C66.8459 132.847 66.6155 132.242 66.2726 131.722C66.1573 131.529 65.9987 131.376 65.8136 131.277C65.6285 131.179 65.4236 131.139 65.2205 131.162L65.1523 131.195C64.9727 131.27 64.8117 131.394 64.683 131.557C64.5543 131.719 64.4616 131.914 64.413 132.125C64.247 132.748 64.212 133.407 64.3109 134.048C64.4097 134.69 64.6395 135.295 64.9817 135.815C65.0954 136.007 65.2518 136.161 65.4347 136.26C65.6177 136.36 65.8206 136.402 66.0224 136.381H66.0508C66.2464 136.316 66.423 136.191 66.5621 136.021C66.7011 135.85 66.7976 135.64 66.8413 135.412Z" fill="#263238"/>
<path d="M130.558 164.788C130.445 164.604 130.294 164.456 130.118 164.357C129.942 164.258 129.747 164.211 129.551 164.221L118.564 167.098C118.768 167.075 118.973 167.116 119.158 167.215C119.343 167.315 119.501 167.47 119.616 167.664C119.958 168.183 120.187 168.788 120.286 169.428C120.385 170.068 120.35 170.725 120.185 171.347C120.136 171.574 120.036 171.782 119.896 171.951C119.755 172.12 119.578 172.244 119.383 172.31L130.319 169.454C130.515 169.387 130.693 169.263 130.834 169.094C130.976 168.926 131.077 168.717 131.126 168.49C131.294 167.866 131.33 167.204 131.231 166.561C131.133 165.917 130.902 165.309 130.558 164.788Z" fill="#455A64"/>
<path d="M118.484 167.097C118.507 167.095 118.53 167.095 118.553 167.097H118.484Z" fill="#455A64"/>
<path d="M120.208 171.334C120.373 170.712 120.408 170.055 120.309 169.415C120.21 168.775 119.98 168.17 119.639 167.651C119.524 167.457 119.366 167.302 119.181 167.202C118.996 167.103 118.79 167.062 118.587 167.085C118.564 167.082 118.541 167.082 118.519 167.085C118.339 167.161 118.179 167.287 118.051 167.45C117.923 167.613 117.832 167.809 117.785 168.022C117.618 168.643 117.583 169.302 117.681 169.942C117.78 170.582 118.011 171.187 118.354 171.705C118.467 171.897 118.624 172.051 118.807 172.15C118.99 172.25 119.193 172.292 119.394 172.271C119.589 172.209 119.766 172.09 119.909 171.925C120.051 171.761 120.154 171.558 120.208 171.334Z" fill="#263238"/>
<g opacity="0.4">
<path d="M77.1972 128.859C77.0827 128.676 76.93 128.529 76.7532 128.432C76.5764 128.334 76.3811 128.288 76.1849 128.299L65.1978 131.162C65.4009 131.139 65.6057 131.179 65.7909 131.277C65.976 131.376 66.1345 131.529 66.2498 131.722C66.5928 132.242 66.8232 132.847 66.922 133.489C67.0209 134.13 66.9854 134.789 66.8185 135.412C66.7734 135.639 66.6757 135.849 66.5357 136.018C66.3956 136.188 66.2183 136.311 66.0224 136.375L76.9584 133.512C77.1564 133.449 77.3361 133.327 77.4782 133.158C77.6204 132.988 77.7198 132.777 77.7659 132.548C77.9296 131.925 77.9634 131.267 77.8646 130.626C77.7659 129.985 77.5373 129.38 77.1972 128.859Z" fill="white"/>
</g>
<g opacity="0.4">
<path d="M130.558 164.788C130.445 164.604 130.294 164.456 130.118 164.357C129.942 164.258 129.747 164.211 129.551 164.221L118.564 167.098C118.768 167.075 118.973 167.116 119.158 167.215C119.343 167.315 119.501 167.47 119.616 167.664C119.958 168.183 120.187 168.788 120.286 169.428C120.385 170.068 120.35 170.725 120.185 171.347C120.136 171.574 120.036 171.782 119.896 171.951C119.755 172.12 119.578 172.244 119.383 172.31L130.319 169.454C130.515 169.387 130.693 169.263 130.834 169.094C130.976 168.926 131.077 168.717 131.126 168.49C131.294 167.866 131.33 167.204 131.231 166.561C131.133 165.917 130.902 165.309 130.558 164.788Z" fill="white"/>
<path d="M118.484 167.097C118.507 167.095 118.53 167.095 118.553 167.097H118.484Z" fill="white"/>
</g>
<path d="M118.337 168.087L113.969 169.336C110.384 170.37 106.589 169.76 103.391 167.638L63.3779 141.204C62.9824 140.947 62.6632 140.561 62.4613 140.095C62.2595 139.629 62.1843 139.104 62.2455 138.589C62.3067 138.073 62.5015 137.59 62.8047 137.203C63.1079 136.815 63.5057 136.54 63.9466 136.414L65.6982 135.919C66.301 135.36 66.2328 132.321 64.9532 132.099L63.1163 132.614C62.0093 132.922 61.0087 133.603 60.2441 134.569C59.4795 135.536 58.9862 136.743 58.8281 138.034C58.6699 139.325 58.8543 140.64 59.3573 141.81C59.8603 142.98 60.6587 143.95 61.6491 144.594L101.685 171.002C104.363 172.781 107.404 173.719 110.5 173.723C111.958 173.709 113.41 173.49 114.822 173.072L119.099 171.855C119.684 171.354 119.616 168.315 118.337 168.087Z" fill="#BCBCBC"/>
<path d="M68.081 149.124V135.555L93.7405 152.514V166.076L68.081 149.124Z" fill="#455A64"/>
<path d="M93.7405 152.514L109.141 161.111V166.076H93.7405V152.514Z" fill="#455A64"/>
<path d="M68.081 135.555L93.7405 152.514L109.141 161.111L83.4756 144.158L68.081 135.555Z" fill="#455A64"/>
<path opacity="0.1" d="M93.7405 152.514L109.141 161.111V166.076H93.7405V152.514Z" fill="white"/>
<path opacity="0.3" d="M68.081 135.555L93.7405 152.514L109.141 161.111L83.4756 144.158L68.081 135.555Z" fill="white"/>
<path opacity="0.2" d="M153.749 189.354C163.571 195.862 163.622 206.359 153.869 212.847C144.116 219.335 128.243 219.354 118.422 212.847C108.601 206.339 108.555 195.842 118.308 189.354C128.061 182.866 143.934 182.866 153.749 189.354Z" fill="black"/>
<path d="M135.164 116.032L137.32 105.275C134.381 105.745 131.602 107.092 129.261 109.179L117.978 119.331L125.741 122.071L135.164 116.032Z" fill="#FFA8A7"/>
<path d="M140.436 164.404L142.011 168.471C142.453 169.617 143.203 170.571 144.153 171.193C145.103 171.815 146.202 172.072 147.289 171.926L160.596 170.189C161.715 170.044 162.847 170.139 163.934 170.469L166.846 171.354V163.545L166.05 163.811C164.518 164.332 162.893 164.377 161.341 163.942L156.49 162.575C154.194 161.929 151.789 161.997 149.524 162.77L149.029 158.163L140.436 164.404Z" fill="#F28F8F"/>
<path d="M176.599 174.686C176.549 172.8 175.857 171.011 174.671 169.701C173.796 168.751 172.692 168.113 171.862 167.098C170.901 165.92 170.503 164.625 169.684 163.291C169.54 163.066 169.342 162.892 169.115 162.79C169.032 162.78 168.948 162.78 168.865 162.79C168.575 162.816 168.293 162.909 168.035 163.063C168.366 163.128 168.662 163.338 168.859 163.649C169.684 164.95 170.264 166.512 171.231 167.664C172.055 168.647 173.159 169.271 174.035 170.202C175.215 171.468 175.909 173.219 175.962 175.07C176.008 176.898 175.422 180.055 174.256 180.055C174.624 180.157 175.012 180.089 175.337 179.866C176.349 178.714 176.628 176.046 176.599 174.686Z" fill="#EBEBEB"/>
<path d="M169.684 163.291C170.503 164.625 170.901 165.894 171.862 167.098C172.692 168.113 173.796 168.751 174.671 169.701C175.857 171.011 176.549 172.8 176.599 174.686C176.599 176.046 176.349 178.714 175.377 179.846C176.616 178.994 176.958 175.981 176.918 174.51C176.863 172.661 176.172 170.911 174.996 169.642C174.12 168.712 173.011 168.087 172.186 167.098C171.219 165.946 170.827 164.677 170.002 163.382C169.9 163.221 169.77 163.086 169.62 162.984C169.471 162.882 169.305 162.816 169.132 162.79C169.353 162.895 169.544 163.068 169.684 163.291Z" fill="#455A64"/>
<path d="M165.754 163.61C165.472 163.752 165.162 163.803 164.856 163.759C164.856 163.759 163.957 163.655 163.662 163.59C163.093 163.466 163.036 164.202 163.036 164.202C163.374 164.243 163.716 164.243 164.054 164.202C164.131 164.337 164.232 164.452 164.351 164.54C164.469 164.627 164.603 164.685 164.742 164.709C165.027 164.773 165.305 164.872 165.572 165.002C165.705 165.071 165.816 165.184 165.893 165.325C165.97 165.466 166.009 165.63 166.005 165.796C165.953 166.161 165.641 166.375 165.436 166.681C165.341 166.859 165.287 167.062 165.279 167.27C165.271 167.478 165.309 167.686 165.39 167.872C165.208 167.782 165.004 167.768 164.813 167.831C164.622 167.893 164.457 168.03 164.344 168.217C164.13 168.611 164.002 169.057 163.969 169.519C163.91 169.826 163.891 170.142 163.912 170.456C163.921 170.614 163.959 170.768 164.023 170.909C164.086 171.05 164.174 171.175 164.281 171.276C164.39 171.373 164.524 171.426 164.662 171.426C164.8 171.426 164.935 171.373 165.043 171.276C165.771 172.629 169.098 173.143 170.765 175.701C172.431 178.258 172.795 180.074 174.273 180.074C175.411 180.074 175.979 176.918 175.979 175.089C175.926 173.238 175.232 171.488 174.052 170.221C173.176 169.291 172.073 168.666 171.248 167.683C170.281 166.532 169.701 164.97 168.876 163.668C168.679 163.358 168.383 163.148 168.052 163.083C167.952 163.069 167.851 163.069 167.75 163.083C167.062 163.114 166.385 163.292 165.754 163.61Z" fill="#EA454C"/>
<path d="M173.841 179.599L174.216 178.421C174.242 178.345 174.285 178.278 174.341 178.227C174.397 178.177 174.464 178.145 174.535 178.135C175.672 177.979 176.031 177.783 176.525 177.185C176.454 177.915 176.249 178.621 175.923 179.254C175.731 179.634 175.419 179.914 175.051 180.036C174.683 180.157 174.288 180.11 173.949 179.905C173.901 179.879 173.862 179.833 173.842 179.776C173.822 179.72 173.822 179.656 173.841 179.599Z" fill="#455A64"/>
<path d="M166.641 168.64C166.641 168.687 166.632 168.733 166.616 168.775C166.599 168.818 166.575 168.856 166.545 168.887C166.167 169.259 165.909 169.765 165.811 170.323C165.713 170.882 165.781 171.462 166.005 171.972C166.032 172.048 166.034 172.133 166.009 172.21C165.984 172.287 165.934 172.35 165.87 172.387C165.806 172.425 165.732 172.433 165.663 172.41C165.594 172.387 165.535 172.335 165.498 172.265C165.22 171.625 165.134 170.897 165.254 170.195C165.374 169.494 165.697 168.86 166.169 168.393C166.227 168.337 166.302 168.309 166.377 168.315C166.453 168.321 166.523 168.361 166.573 168.425C166.618 168.485 166.642 168.561 166.641 168.64Z" fill="#37474F"/>
<path d="M168.387 169.558C168.387 169.646 168.357 169.73 168.302 169.792C167.942 170.2 167.681 170.707 167.542 171.264C167.404 171.822 167.393 172.411 167.512 172.974C167.521 173.017 167.522 173.061 167.516 173.105C167.51 173.148 167.497 173.19 167.477 173.227C167.456 173.265 167.43 173.297 167.399 173.323C167.368 173.349 167.333 173.367 167.295 173.378C167.258 173.388 167.219 173.39 167.181 173.383C167.144 173.376 167.107 173.361 167.074 173.338C167.042 173.315 167.013 173.285 166.991 173.249C166.968 173.213 166.952 173.173 166.943 173.13C166.803 172.456 166.816 171.753 166.981 171.086C167.147 170.42 167.458 169.813 167.887 169.323C167.913 169.293 167.945 169.269 167.979 169.252C168.014 169.236 168.051 169.227 168.089 169.227C168.126 169.227 168.163 169.236 168.198 169.252C168.233 169.269 168.264 169.293 168.291 169.323C168.32 169.353 168.344 169.388 168.361 169.429C168.377 169.469 168.386 169.513 168.387 169.558Z" fill="#37474F"/>
<path d="M169.929 171.002C169.929 171.051 169.919 171.1 169.9 171.144C169.882 171.188 169.854 171.226 169.82 171.256C169.499 171.558 169.253 171.95 169.104 172.394C168.955 172.837 168.91 173.318 168.973 173.788C168.985 173.873 168.967 173.96 168.923 174.03C168.88 174.101 168.814 174.149 168.74 174.165C168.665 174.178 168.589 174.158 168.528 174.108C168.466 174.058 168.424 173.983 168.41 173.898C168.329 173.312 168.384 172.712 168.57 172.158C168.756 171.604 169.065 171.116 169.468 170.742C169.527 170.689 169.602 170.664 169.676 170.674C169.751 170.684 169.819 170.727 169.866 170.794C169.907 170.853 169.929 170.927 169.929 171.002Z" fill="#37474F"/>
<path d="M171.197 172.402C171.196 172.447 171.187 172.492 171.17 172.533C171.154 172.575 171.13 172.612 171.1 172.642C170.826 172.931 170.616 173.289 170.487 173.689C170.357 174.088 170.312 174.517 170.355 174.94C170.365 175.025 170.344 175.111 170.299 175.18C170.253 175.248 170.185 175.293 170.111 175.304C170.073 175.31 170.036 175.308 169.999 175.297C169.963 175.287 169.929 175.268 169.899 175.242C169.87 175.215 169.845 175.183 169.826 175.145C169.808 175.108 169.796 175.067 169.792 175.024C169.737 174.497 169.792 173.962 169.953 173.464C170.115 172.966 170.377 172.52 170.719 172.161C170.745 172.13 170.777 172.106 170.812 172.09C170.846 172.073 170.883 172.065 170.921 172.065C170.958 172.065 170.996 172.073 171.03 172.09C171.065 172.106 171.096 172.13 171.123 172.161C171.172 172.228 171.199 172.314 171.197 172.402Z" fill="#37474F"/>
<path d="M134.669 136.551C134.243 143.462 135.858 151.518 136.376 153.9L135.483 156.347C135.261 162.627 143.348 166.057 147.056 163.61C152.868 152.976 155.814 147.21 154.67 140.52L134.669 136.551Z" fill="#263238"/>
<path opacity="0.3" d="M136.859 152.833L140.436 144.685C137.445 143.664 135.164 139.583 135.164 139.583C135.625 143.052 138.514 145.251 138.514 145.251C137.244 147.499 136.662 150.166 136.859 152.833Z" fill="black"/>
<path d="M147.181 161.293C146.419 157.388 141.238 153.139 136.819 154.499L132.69 164.944C131.996 166.703 131.576 168.589 131.451 170.514L129.807 195.732C129.695 197.496 129.416 199.242 128.977 200.938L128.926 201.133L134.669 202.89C134.692 199.977 135.17 197.092 136.08 194.371L140.47 181.265C141.32 178.713 141.707 175.989 141.608 173.261L141.539 171.198L147.181 161.293Z" fill="#FFA8A7"/>
<path d="M125.695 213.953C127.341 213.894 128.902 213.102 130.046 211.747C130.882 210.745 131.439 209.482 132.321 208.539C133.35 207.432 134.488 206.977 135.648 206.04C135.844 205.875 135.996 205.649 136.086 205.389C136.094 205.294 136.094 205.198 136.086 205.103C136.063 204.771 135.984 204.448 135.852 204.153C135.798 204.532 135.614 204.872 135.341 205.096C134.203 206.04 132.844 206.704 131.837 207.81C130.973 208.753 130.427 210.022 129.614 211.018C128.507 212.369 126.977 213.163 125.36 213.224C123.768 213.276 121.004 212.613 121.004 211.272C120.914 211.693 120.974 212.137 121.169 212.508C122.158 213.641 124.501 213.953 125.695 213.953Z" fill="#EBEBEB"/>
<path d="M135.648 206.014C134.51 206.951 133.373 207.406 132.321 208.513C131.439 209.456 130.882 210.719 130.046 211.721C128.902 213.076 127.341 213.868 125.695 213.927C124.501 213.966 122.175 213.641 121.18 212.528C121.925 213.947 124.564 214.337 125.843 214.291C127.46 214.232 128.99 213.441 130.097 212.092C130.91 211.09 131.456 209.827 132.321 208.877C133.327 207.777 134.436 207.322 135.574 206.378C135.715 206.262 135.833 206.113 135.921 205.942C136.009 205.771 136.065 205.58 136.086 205.382C135.994 205.635 135.842 205.854 135.648 206.014Z" fill="#455A64"/>
<path d="M135.375 201.517C135.249 201.197 135.204 200.843 135.244 200.495C135.244 200.495 135.329 199.46 135.386 199.129C135.494 198.478 135.056 198.445 135.056 198.445C135.056 198.445 134.971 198.959 134.897 199.565C134.775 199.654 134.669 199.77 134.586 199.906C134.503 200.043 134.445 200.196 134.414 200.359C134.358 200.685 134.272 201.003 134.158 201.309C134.098 201.461 134 201.589 133.877 201.677C133.753 201.765 133.609 201.809 133.464 201.803C133.151 201.751 132.958 201.387 132.696 201.152C132.54 201.044 132.362 200.982 132.179 200.973C131.996 200.963 131.814 201.007 131.65 201.1C131.73 200.893 131.744 200.66 131.689 200.442C131.634 200.224 131.513 200.036 131.348 199.91C131.005 199.662 130.615 199.512 130.211 199.473C129.94 199.41 129.662 199.388 129.386 199.408C129.249 199.419 129.114 199.462 128.992 199.534C128.87 199.607 128.762 199.708 128.675 199.831C128.59 199.956 128.543 200.109 128.543 200.267C128.543 200.426 128.59 200.579 128.675 200.703C127.487 201.536 127.038 205.343 124.803 207.25C122.568 209.157 120.981 209.58 120.981 211.265C120.981 212.567 123.745 213.218 125.337 213.218C126.955 213.156 128.484 212.363 129.591 211.012C130.404 210.016 130.95 208.747 131.815 207.803C132.821 206.697 134.18 206.033 135.318 205.09C135.493 204.939 135.633 204.741 135.726 204.515C135.819 204.288 135.862 204.038 135.852 203.788C135.813 203.004 135.651 202.235 135.375 201.517Z" fill="#EA454C"/>
<path d="M121.396 210.771L122.426 211.2C122.494 211.228 122.555 211.278 122.6 211.343C122.646 211.409 122.674 211.488 122.681 211.571C122.812 212.873 122.983 213.283 123.506 213.842C122.869 213.764 122.255 213.531 121.703 213.159C121.371 212.939 121.126 212.58 121.02 212.158C120.914 211.736 120.955 211.283 121.135 210.894C121.158 210.841 121.197 210.8 121.245 210.777C121.293 210.754 121.347 210.752 121.396 210.771Z" fill="#455A64"/>
<path d="M130.979 202.539C130.937 202.539 130.896 202.528 130.859 202.508C130.822 202.488 130.789 202.458 130.763 202.421C130.435 201.992 129.994 201.697 129.506 201.582C129.016 201.47 128.507 201.551 128.061 201.81C127.993 201.849 127.915 201.855 127.843 201.828C127.771 201.8 127.711 201.741 127.677 201.663C127.643 201.586 127.638 201.496 127.662 201.413C127.686 201.331 127.737 201.263 127.805 201.224C128.367 200.896 129.01 200.794 129.629 200.934C130.248 201.075 130.807 201.45 131.218 201.998C131.266 202.063 131.29 202.148 131.285 202.233C131.28 202.318 131.245 202.398 131.189 202.454C131.161 202.484 131.128 202.506 131.091 202.521C131.055 202.535 131.017 202.541 130.979 202.539Z" fill="#37474F"/>
<path d="M130.171 204.53C130.094 204.53 130.021 204.495 129.966 204.432C129.611 204.021 129.169 203.722 128.682 203.564C128.196 203.405 127.683 203.393 127.191 203.528C127.155 203.538 127.116 203.541 127.079 203.534C127.042 203.528 127.006 203.513 126.974 203.491C126.941 203.468 126.913 203.439 126.891 203.404C126.869 203.369 126.853 203.329 126.844 203.287C126.835 203.246 126.833 203.203 126.838 203.161C126.843 203.119 126.856 203.079 126.875 203.043C126.894 203.006 126.919 202.975 126.949 202.949C126.979 202.924 127.013 202.906 127.049 202.897C127.638 202.735 128.253 202.75 128.836 202.939C129.418 203.128 129.949 203.485 130.376 203.977C130.415 204.023 130.442 204.081 130.452 204.144C130.463 204.207 130.457 204.272 130.435 204.331C130.413 204.391 130.376 204.441 130.329 204.476C130.282 204.512 130.227 204.53 130.171 204.53Z" fill="#37474F"/>
<path d="M128.931 206.268C128.888 206.267 128.845 206.256 128.806 206.234C128.767 206.213 128.732 206.182 128.704 206.144C128.441 205.775 128.099 205.491 127.711 205.32C127.323 205.148 126.903 205.096 126.492 205.168C126.416 205.182 126.339 205.16 126.277 205.109C126.215 205.058 126.174 204.981 126.162 204.894C126.15 204.808 126.168 204.72 126.213 204.649C126.258 204.578 126.325 204.531 126.401 204.517C126.912 204.425 127.435 204.488 127.918 204.701C128.402 204.913 128.827 205.267 129.153 205.727C129.188 205.775 129.21 205.833 129.217 205.895C129.224 205.957 129.215 206.019 129.191 206.075C129.168 206.132 129.131 206.179 129.085 206.212C129.039 206.245 128.986 206.262 128.931 206.261V206.268Z" fill="#37474F"/>
<path d="M127.692 207.745C127.652 207.745 127.612 207.735 127.576 207.716C127.539 207.697 127.507 207.669 127.481 207.634C127.227 207.322 126.913 207.083 126.563 206.936C126.213 206.789 125.838 206.738 125.468 206.788C125.393 206.796 125.318 206.77 125.259 206.717C125.2 206.664 125.161 206.587 125.15 206.502C125.145 206.459 125.148 206.416 125.158 206.374C125.168 206.332 125.185 206.294 125.208 206.26C125.231 206.226 125.26 206.197 125.293 206.176C125.326 206.155 125.362 206.142 125.4 206.137C125.86 206.075 126.328 206.138 126.763 206.323C127.198 206.507 127.588 206.807 127.902 207.198C127.937 207.246 127.96 207.304 127.968 207.365C127.976 207.427 127.968 207.49 127.946 207.547C127.925 207.604 127.889 207.653 127.844 207.688C127.799 207.723 127.746 207.742 127.692 207.745Z" fill="#37474F"/>
<path d="M149.74 104.709C146.627 104.429 143.501 104.403 140.385 104.631C138.986 104.654 137.609 105.032 136.353 105.737C135.553 106.321 134.862 107.083 134.323 107.977C133.784 108.871 133.407 109.879 133.214 110.943C132.843 113.069 132.724 115.243 132.861 117.405C133.026 124.472 133.487 130.505 134.152 137.533C140.288 141.588 148.369 143.507 155.194 141.282C155.29 132.171 154.898 122.533 153.294 113.605C152.726 110.377 151.901 106.889 149.74 104.709Z" fill="#455A64"/>
<path opacity="0.3" d="M149.74 104.709C146.627 104.429 143.501 104.403 140.385 104.631C138.986 104.654 137.609 105.032 136.353 105.737C135.553 106.321 134.862 107.083 134.323 107.977C133.784 108.871 133.407 109.879 133.214 110.943C132.843 113.069 132.724 115.243 132.861 117.405C133.026 124.472 133.487 130.505 134.152 137.533C140.288 141.588 148.369 143.507 155.194 141.282C155.29 132.171 154.898 122.533 153.294 113.605C152.726 110.377 151.901 106.889 149.74 104.709Z" fill="white"/>
<path d="M168.285 122.846C168.363 121.883 168.231 120.913 167.902 120.023C167.572 119.133 167.055 118.35 166.397 117.744L155.08 107.286C153.547 105.865 151.697 104.963 149.74 104.683L148.631 104.585C147.619 105.659 147.175 113.305 151.736 116.409L161.574 122.982L161.478 137.449L158.111 141.848C158.05 141.924 158.006 142.016 157.983 142.116C157.959 142.216 157.957 142.321 157.975 142.422C157.994 142.523 158.034 142.618 158.091 142.698C158.148 142.778 158.222 142.841 158.304 142.883C158.498 142.986 158.713 143.026 158.926 142.996C159.138 142.966 159.338 142.868 159.504 142.714L160.596 141.692C159.92 143.15 159.328 144.809 158.651 146.247C158.483 146.53 158.399 146.868 158.412 147.21C158.435 147.355 158.486 147.492 158.561 147.611C158.635 147.73 158.732 147.829 158.845 147.9C159.066 148.045 159.313 148.134 159.567 148.16C160.456 148.28 161.356 148.096 162.154 147.633C162.951 147.171 163.654 146.524 164.219 145.733C165.3 144.244 165.948 142.406 166.073 140.475C167.089 134.649 167.828 128.764 168.285 122.846Z" fill="#FFA8A7"/>
<path d="M138.349 101.943V103.114C138.323 103.972 138.185 104.821 137.939 105.633C137.837 105.974 137.837 106.345 137.939 106.687C138.045 106.974 138.205 107.23 138.409 107.436C138.613 107.643 138.855 107.793 139.117 107.878C139.636 108.037 140.181 108.057 140.709 107.936C142.287 107.629 143.72 106.696 144.758 105.301L144.525 97.2899L138.349 101.943Z" fill="#FFA8A7"/>
<path opacity="0.2" d="M143.285 100.771C143.786 99.7696 144.107 98.6634 144.229 97.5176L138.349 101.936V103.108C138.343 103.45 138.315 103.792 138.264 104.129C139.093 103.965 139.901 103.683 140.669 103.29C141.737 102.76 142.647 101.885 143.285 100.771Z" fill="black"/>
<path d="M131.826 88.947C131.154 88.9719 130.489 88.7855 129.904 88.408C129.318 88.0305 128.834 87.4764 128.505 86.806C128.458 86.7076 128.438 86.5958 128.446 86.4843C128.454 86.3728 128.491 86.2665 128.552 86.1786C128.612 86.0907 128.694 86.025 128.786 85.9896C128.879 85.9542 128.979 85.9507 129.074 85.9795C129.538 86.0738 130.014 86.0738 130.478 85.9795C129.942 85.1814 129.551 84.2691 129.326 83.2959C129.101 82.3228 129.049 81.3082 129.17 80.3113C129.185 80.2005 129.223 80.0952 129.28 80.004C129.337 79.9128 129.412 79.8383 129.499 79.7863C129.586 79.7344 129.682 79.7066 129.78 79.7051C129.878 79.7036 129.975 79.7284 130.063 79.7777C131.991 80.8719 134.136 81.3679 136.285 81.2159C137.422 81.1248 138.559 80.8449 139.697 80.7473C140.841 80.585 142.002 80.7877 143.052 81.333C143.58 81.6104 144.031 82.0472 144.358 82.5965C144.685 83.1458 144.874 83.7868 144.906 84.4502C145.037 84.2377 145.206 84.0602 145.402 83.9299C145.599 83.7996 145.817 83.7195 146.043 83.6953C146.279 83.6626 146.519 83.6856 146.747 83.7629C146.974 83.8401 147.186 83.9699 147.368 84.1443L145.401 85.3938C145.77 85.3096 146.153 85.3673 146.49 85.5579C146.827 85.7486 147.1 86.0616 147.266 86.4481C147.555 87.2054 147.68 88.0315 147.63 88.8559C147.667 89.9426 147.625 91.031 147.505 92.1097C147.376 93.2005 147.002 94.2342 146.419 95.1098C145.906 95.8256 145.222 96.3548 144.451 96.6326C143.4 96.9685 142.285 96.9276 141.255 96.5154C140.233 96.1073 139.26 95.5519 138.36 94.8625C136.028 93.124 133.841 91.1438 131.826 88.947Z" fill="#263238"/>
<path d="M131.701 86.7669C131.042 91.2964 131.479 95.9459 132.963 100.212C133.234 101.235 133.797 102.124 134.561 102.737C135.403 103.29 136.45 103.173 137.405 103.01C138.963 102.809 140.483 102.319 141.903 101.559C143.336 100.787 144.452 99.4111 145.02 97.7194C145.529 97.8381 146.056 97.7857 146.54 97.5686C147.023 97.3515 147.441 96.979 147.744 96.4959C148.344 95.4933 148.654 94.3008 148.631 93.0859C148.631 92.318 148.506 91.4069 147.903 91.0685C147.607 90.9649 147.291 90.9556 146.991 91.0416C146.69 91.1276 146.416 91.3056 146.197 91.5566C145.387 92.3017 144.793 93.3086 144.491 94.446C144.047 92.5653 143.353 90.7496 142.91 88.8754C142.81 88.1132 142.47 87.4189 141.954 86.9231C141.266 86.4155 140.368 86.7084 139.572 86.9231C136.979 87.6399 134.27 87.5861 131.701 86.7669Z" fill="#FFA8A7"/>
<path d="M136.484 92.4677L134.567 96.1705L136.853 96.6586L136.484 92.4677Z" fill="#F28F8F"/>
<path d="M139.06 97.9341L137.32 98.9038C137.469 99.1299 137.678 99.2942 137.916 99.3717C138.154 99.4493 138.408 99.4358 138.639 99.3333C138.84 99.192 138.992 98.9752 139.068 98.72C139.145 98.4648 139.142 98.187 139.06 97.9341Z" fill="#F28F8F"/>
<path opacity="0.3" d="M139.06 97.9341L137.32 98.9038C137.469 99.1299 137.678 99.2942 137.916 99.3717C138.154 99.4493 138.408 99.4358 138.639 99.3333C138.84 99.192 138.992 98.9752 139.068 98.72C139.145 98.4648 139.142 98.187 139.06 97.9341Z" fill="black"/>
<path d="M138.036 99.4179C138.238 99.4631 138.448 99.4405 138.639 99.3528C138.798 99.2502 138.928 99.0961 139.011 98.9096C139.094 98.7232 139.127 98.5129 139.105 98.3051C138.857 98.3022 138.615 98.3989 138.423 98.5784C138.313 98.682 138.222 98.8096 138.156 98.9537C138.09 99.0978 138.049 99.2556 138.036 99.4179Z" fill="#F28F8F"/>
<path d="M139.788 92.6174C139.805 92.7666 139.783 92.9183 139.725 93.0532C139.667 93.1881 139.574 93.2999 139.46 93.3743C139.346 93.4487 139.214 93.4823 139.083 93.4707C138.952 93.4591 138.827 93.4029 138.724 93.3094C138.621 93.2158 138.545 93.0891 138.505 92.9455C138.465 92.802 138.464 92.6482 138.501 92.5038C138.539 92.3594 138.613 92.2312 138.714 92.1354C138.816 92.0397 138.94 91.9809 139.071 91.9666C139.242 91.9446 139.413 92.0007 139.547 92.1227C139.681 92.2446 139.768 92.4225 139.788 92.6174Z" fill="#263238"/>
<path d="M134.288 93.0078C134.305 93.1106 134.303 93.2163 134.283 93.3182C134.262 93.42 134.223 93.5158 134.168 93.5995C134.113 93.6833 134.044 93.753 133.964 93.8044C133.885 93.8558 133.797 93.8878 133.706 93.8982C133.615 93.9086 133.523 93.8972 133.436 93.8649C133.349 93.8325 133.269 93.7799 133.201 93.7102C133.133 93.6406 133.078 93.5555 133.04 93.4604C133.002 93.3652 132.982 93.2621 132.98 93.1575C132.978 92.9685 133.038 92.7854 133.148 92.6444C133.258 92.5034 133.41 92.4147 133.574 92.3959C133.739 92.3771 133.903 92.4295 134.036 92.5428C134.168 92.6561 134.258 92.822 134.288 93.0078Z" fill="#263238"/>
<path d="M133.39 90.1054L132.036 91.4069C131.956 91.2079 131.93 90.9855 131.962 90.7692C131.995 90.553 132.084 90.3532 132.218 90.1965C132.386 90.0567 132.585 89.9739 132.793 89.9578C133 89.9417 133.207 89.9928 133.39 90.1054Z" fill="#263238"/>
<path d="M138.98 89.3635L140.533 90.3462C140.578 90.1339 140.565 89.9108 140.496 89.7072C140.427 89.5035 140.305 89.329 140.146 89.2073C139.958 89.1096 139.75 89.0725 139.544 89.1C139.339 89.1276 139.144 89.2186 138.98 89.3635Z" fill="#263238"/>
<path d="M139.412 133.31C139.412 133.128 139.412 132.952 139.373 132.776C139.181 131.275 138.616 129.869 137.743 128.728C136.87 127.586 135.728 126.757 134.453 126.34L125.991 120.483L120.304 117.229L117.961 119.344C117.434 119.813 117.038 120.449 116.824 121.173C116.548 122.139 116.613 123.19 117.004 124.103C117.394 125.015 118.081 125.718 118.917 126.06L132.565 131.566C133.458 132.634 134.024 134.004 134.18 135.47C134.216 135.901 134.291 136.326 134.402 136.739C134.593 137.23 134.918 137.637 135.328 137.898C135.739 138.16 136.212 138.263 136.677 138.191C137.138 138.11 137.575 137.908 137.956 137.599C138.336 137.291 138.648 136.885 138.866 136.414C139.305 135.461 139.495 134.383 139.412 133.31Z" fill="#FFA8A7"/>
<path d="M134.851 126.34V125.397H134.249V125.741L132.963 124.882C132.83 124.793 132.678 124.746 132.523 124.746C132.368 124.746 132.216 124.793 132.082 124.882L129.938 126.301V125.891L129.369 125.95V126.88C129.37 126.939 129.384 126.996 129.41 127.046C129.436 127.096 129.473 127.138 129.517 127.167L131.28 128.338C131.415 128.425 131.566 128.47 131.721 128.47C131.875 128.47 132.027 128.425 132.162 128.338L134.749 126.626C134.792 126.599 134.827 126.56 134.852 126.512C134.877 126.464 134.891 126.409 134.891 126.353L134.851 126.34Z" fill="#EA454C"/>
<path d="M132.059 124.108L129.87 125.559C129.83 125.583 129.798 125.619 129.775 125.662C129.752 125.706 129.74 125.756 129.74 125.807C129.74 125.857 129.752 125.907 129.775 125.951C129.798 125.994 129.83 126.03 129.87 126.054L131.371 127.043C131.485 127.12 131.614 127.16 131.746 127.16C131.878 127.16 132.008 127.12 132.122 127.043L134.317 125.592C134.355 125.567 134.386 125.53 134.408 125.487C134.43 125.444 134.441 125.395 134.441 125.344C134.441 125.294 134.43 125.245 134.408 125.202C134.386 125.159 134.355 125.122 134.317 125.097L132.81 124.108C132.696 124.031 132.567 123.991 132.435 123.991C132.303 123.991 132.173 124.031 132.059 124.108Z" fill="#EA454C"/>
<path opacity="0.3" d="M134.851 126.34V125.397H134.249V125.741L132.963 124.882C132.83 124.793 132.678 124.746 132.523 124.746C132.368 124.746 132.216 124.793 132.082 124.882L129.938 126.301V125.891L129.369 125.95V126.88C129.37 126.939 129.384 126.996 129.41 127.046C129.436 127.096 129.473 127.138 129.517 127.167L131.28 128.338C131.415 128.425 131.566 128.47 131.721 128.47C131.875 128.47 132.027 128.425 132.162 128.338L134.749 126.626C134.792 126.599 134.827 126.56 134.852 126.512C134.877 126.464 134.891 126.409 134.891 126.353L134.851 126.34Z" fill="black"/>
<path d="M132.053 123.952L129.477 125.657C129.432 125.686 129.395 125.728 129.369 125.779C129.343 125.83 129.329 125.887 129.329 125.946C129.329 126.005 129.343 126.063 129.369 126.114C129.395 126.165 129.432 126.207 129.477 126.236L131.257 127.401C131.392 127.488 131.544 127.533 131.698 127.533C131.852 127.533 132.004 127.488 132.139 127.401L134.726 125.689C134.77 125.659 134.806 125.617 134.831 125.566C134.856 125.515 134.869 125.458 134.869 125.4C134.869 125.342 134.856 125.284 134.831 125.234C134.806 125.183 134.77 125.14 134.726 125.11L132.963 123.952C132.826 123.856 132.669 123.806 132.508 123.806C132.348 123.806 132.191 123.856 132.053 123.952Z" fill="#EA454C"/>
<path opacity="0.5" d="M132.059 124.108L129.87 125.559C129.83 125.583 129.798 125.619 129.775 125.662C129.752 125.706 129.74 125.756 129.74 125.807C129.74 125.857 129.752 125.907 129.775 125.951C129.798 125.994 129.83 126.03 129.87 126.054L131.371 127.043C131.485 127.12 131.614 127.16 131.746 127.16C131.878 127.16 132.008 127.12 132.122 127.043L134.317 125.592C134.355 125.567 134.386 125.53 134.408 125.487C134.43 125.444 134.441 125.395 134.441 125.344C134.441 125.294 134.43 125.245 134.408 125.202C134.386 125.159 134.355 125.122 134.317 125.097L132.81 124.108C132.696 124.031 132.567 123.991 132.435 123.991C132.303 123.991 132.173 124.031 132.059 124.108Z" fill="white"/>
<path d="M131.087 130.954C130.74 130.583 130.552 128.559 131.24 127.902L129.477 126.737C128.909 127.564 129.051 129.34 129.369 130.238C129.407 130.341 129.463 130.433 129.535 130.509C129.607 130.584 129.692 130.64 129.784 130.674C130.126 130.804 130.7 131.032 130.922 131.117C130.99 131.145 131.062 131.155 131.134 131.147C131.206 131.139 131.275 131.113 131.337 131.071L131.087 130.954Z" fill="#455A64"/>
</svg>
